# xmcd
#
# Track frame offsets: 
#        150
#        13726
#        32199
#        45884
#        64459
#
# Disc length: 1041 seconds
#
# Revision: 0
# Processed by: cddbd v1.5.2PL0 Copyright (c) Steve Scherf et al.
# Submitted via: ExactAudioCopy v0.99pb4
#
DISCID=3b040f05
DTITLE=YEAHBUTNOW - YEAHBUTNOW! EP
DYEAR=2008
DGENRE=Indie
TTITLE0=At Second Sight
TTITLE1=Traces
TTITLE2=You Are Not
TTITLE3=Separated Souls
TTITLE4=In Case It Should Rain All Night
EXTD=
EXTT0=
EXTT1=
EXTT2=
EXTT3=
EXTT4=
PLAYORDER=
